<svg xmlns="http://www.w3.org/2000/svg" viewBox="0 0 500 500"><defs><style>.cls-1{fill:#77432e;}.cls-2{fill:#ffebc6;}.cls-3{fill:#d78b64;}.cls-4{fill:#fad2a9;}.cls-5{fill:#bfdaeb;}.cls-6{fill:#ddebf4;}.cls-7{fill:#145569;}.cls-8{fill:#19708c;}.cls-9{fill:#1a7cb9;}.cls-10{fill:#572e1d;}</style></defs><g id="Layer_1" data-name="Layer 1"><rect class="cls-1" x="333.33" y="323.53" width="9.81" height="9.8"/><rect class="cls-1" x="323.53" y="333.33" width="9.8" height="9.81"/><rect class="cls-1" x="313.73" y="333.33" width="9.8" height="9.81"/><rect class="cls-2" x="254.9" y="78.43" width="9.81" height="9.81"/><rect class="cls-2" x="245.1" y="78.43" width="9.8" height="9.81"/><rect class="cls-2" x="235.29" y="78.43" width="9.81" height="9.81"/><rect class="cls-2" x="264.71" y="78.43" width="9.8" height="9.81"/><rect class="cls-2" x="225.49" y="88.24" width="9.8" height="9.8"/><rect class="cls-2" x="215.69" y="88.24" width="9.8" height="9.8"/><rect class="cls-2" x="254.9" y="88.24" width="9.81" height="9.8"/><rect class="cls-2" x="245.1" y="88.24" width="9.8" height="9.8"/><rect class="cls-2" x="235.29" y="88.24" width="9.81" height="9.8"/><rect class="cls-2" x="284.31" y="98.04" width="9.81" height="9.8"/><rect class="cls-2" x="284.31" y="88.24" width="9.81" height="9.8"/><rect class="cls-2" x="274.51" y="88.24" width="9.8" height="9.8"/><rect class="cls-2" x="274.51" y="98.04" width="9.8" height="9.8"/><rect class="cls-2" x="264.71" y="88.24" width="9.8" height="9.8"/><rect class="cls-2" x="225.49" y="98.04" width="9.8" height="9.8"/><rect class="cls-2" x="254.9" y="107.84" width="9.81" height="9.81"/><rect class="cls-2" x="254.9" y="98.04" width="9.81" height="9.8"/><rect class="cls-2" x="245.1" y="107.84" width="9.8" height="9.81"/><rect class="cls-2" x="245.1" y="98.04" width="9.8" height="9.8"/><rect class="cls-2" x="235.29" y="107.84" width="9.81" height="9.81"/><rect class="cls-2" x="235.29" y="98.04" width="9.81" height="9.8"/><rect class="cls-2" x="264.71" y="98.04" width="9.8" height="9.8"/><rect class="cls-2" x="264.71" y="107.84" width="9.8" height="9.81"/><rect class="cls-2" x="186.27" y="137.25" width="9.81" height="9.81"/><rect class="cls-2" x="186.27" y="147.06" width="9.81" height="9.8"/><rect class="cls-2" x="254.9" y="186.27" width="9.81" height="9.81"/><rect class="cls-2" x="245.1" y="186.27" width="9.8" height="9.81"/><rect class="cls-2" x="235.29" y="186.27" width="9.81" height="9.81"/><rect class="cls-2" x="264.71" y="186.27" width="9.8" height="9.81"/><rect class="cls-2" x="264.71" y="166.67" width="9.8" height="9.8"/><rect class="cls-2" x="225.49" y="176.47" width="9.8" height="9.8"/><rect class="cls-2" x="254.9" y="176.47" width="9.81" height="9.8"/><rect class="cls-2" x="254.9" y="166.67" width="9.81" height="9.8"/><rect class="cls-2" x="245.1" y="176.47" width="9.8" height="9.8"/><rect class="cls-2" x="245.1" y="166.67" width="9.8" height="9.8"/><rect class="cls-2" x="235.29" y="166.67" width="9.81" height="9.8"/><rect class="cls-2" x="235.29" y="176.47" width="9.81" height="9.8"/><rect class="cls-2" x="274.51" y="176.47" width="9.8" height="9.8"/><rect class="cls-2" x="264.71" y="176.47" width="9.8" height="9.8"/><rect class="cls-3" x="294.12" y="78.43" width="9.8" height="9.81"/><rect class="cls-3" x="274.51" y="68.63" width="9.8" height="9.8"/><rect class="cls-3" x="225.49" y="68.63" width="9.8" height="9.8"/><rect class="cls-3" x="205.88" y="78.43" width="9.81" height="9.81"/><rect class="cls-4" x="225.49" y="78.43" width="9.8" height="9.81"/><rect class="cls-4" x="274.51" y="107.84" width="9.8" height="9.81"/><rect class="cls-4" x="284.31" y="107.84" width="9.81" height="9.81"/><rect class="cls-4" x="225.49" y="107.84" width="9.8" height="9.81"/><rect class="cls-4" x="284.31" y="78.43" width="9.81" height="9.81"/><rect class="cls-4" x="274.51" y="78.43" width="9.8" height="9.81"/><rect class="cls-4" x="254.9" y="68.63" width="9.81" height="9.8"/><rect class="cls-4" x="245.1" y="68.63" width="9.8" height="9.8"/><rect class="cls-4" x="235.29" y="68.63" width="9.81" height="9.8"/><rect class="cls-4" x="264.71" y="68.63" width="9.8" height="9.8"/><rect class="cls-4" x="215.69" y="78.43" width="9.8" height="9.81"/><rect class="cls-4" x="205.88" y="107.84" width="9.81" height="9.81"/><rect class="cls-4" x="215.69" y="107.84" width="9.8" height="9.81"/><rect class="cls-4" x="215.69" y="98.04" width="9.8" height="9.8"/><rect class="cls-4" x="205.88" y="88.24" width="9.81" height="9.8"/><rect class="cls-4" x="205.88" y="98.04" width="9.81" height="9.8"/><rect class="cls-4" x="196.08" y="98.04" width="9.8" height="9.8"/><rect class="cls-4" x="196.08" y="107.84" width="9.8" height="9.81"/><rect class="cls-4" x="294.12" y="107.84" width="9.8" height="9.81"/><rect class="cls-4" x="294.12" y="98.04" width="9.8" height="9.8"/><rect class="cls-4" x="294.12" y="88.24" width="9.8" height="9.8"/><rect class="cls-4" x="303.92" y="107.84" width="9.81" height="9.81"/><rect class="cls-4" x="303.92" y="98.04" width="9.81" height="9.8"/><rect class="cls-4" x="225.49" y="117.65" width="9.8" height="9.8"/><rect class="cls-4" x="215.69" y="117.65" width="9.8" height="9.8"/><rect class="cls-4" x="205.88" y="117.65" width="9.81" height="9.8"/><rect class="cls-4" x="196.08" y="117.65" width="9.8" height="9.8"/><rect class="cls-4" x="245.1" y="117.65" width="9.8" height="9.8"/><rect class="cls-4" x="235.29" y="117.65" width="9.81" height="9.8"/><rect class="cls-4" x="303.92" y="117.65" width="9.81" height="9.8"/><rect class="cls-4" x="294.12" y="117.65" width="9.8" height="9.8"/><rect class="cls-4" x="225.49" y="127.45" width="9.8" height="9.8"/><rect class="cls-4" x="215.69" y="127.45" width="9.8" height="9.8"/><rect class="cls-4" x="205.88" y="127.45" width="9.81" height="9.8"/><rect class="cls-4" x="254.9" y="127.45" width="9.81" height="9.8"/><rect class="cls-4" x="254.9" y="117.65" width="9.81" height="9.8"/><rect class="cls-4" x="245.1" y="127.45" width="9.8" height="9.8"/><rect class="cls-4" x="235.29" y="127.45" width="9.81" height="9.8"/><rect class="cls-4" x="294.12" y="127.45" width="9.8" height="9.8"/><rect class="cls-4" x="284.31" y="117.65" width="9.81" height="9.8"/><rect class="cls-4" x="284.31" y="127.45" width="9.81" height="9.8"/><rect class="cls-4" x="274.51" y="127.45" width="9.8" height="9.8"/><rect class="cls-4" x="274.51" y="117.65" width="9.8" height="9.8"/><rect class="cls-4" x="264.71" y="127.45" width="9.8" height="9.8"/><rect class="cls-4" x="264.71" y="117.65" width="9.8" height="9.8"/><rect class="cls-4" x="254.9" y="137.25" width="9.81" height="9.81"/><rect class="cls-4" x="254.9" y="147.06" width="9.81" height="9.8"/><rect class="cls-4" x="245.1" y="137.25" width="9.8" height="9.81"/><rect class="cls-4" x="245.1" y="147.06" width="9.8" height="9.8"/><rect class="cls-4" x="235.29" y="147.06" width="9.81" height="9.8"/><rect class="cls-4" x="235.29" y="137.25" width="9.81" height="9.81"/><rect class="cls-4" x="264.71" y="147.06" width="9.8" height="9.8"/><rect class="cls-4" x="264.71" y="137.25" width="9.8" height="9.81"/><rect class="cls-4" x="254.9" y="156.86" width="9.81" height="9.81"/><rect class="cls-4" x="245.1" y="156.86" width="9.8" height="9.81"/><rect class="cls-4" x="235.29" y="156.86" width="9.81" height="9.81"/><rect class="cls-4" x="264.71" y="156.86" width="9.8" height="9.81"/><rect class="cls-2" x="313.73" y="137.25" width="9.8" height="9.81"/><rect class="cls-2" x="313.73" y="147.06" width="9.8" height="9.8"/><rect class="cls-4" x="284.31" y="176.47" width="9.81" height="9.8"/><rect class="cls-4" x="215.69" y="176.47" width="9.8" height="9.8"/><rect class="cls-4" x="225.49" y="186.27" width="9.8" height="9.81"/><rect class="cls-4" x="274.51" y="186.27" width="9.8" height="9.81"/><rect class="cls-3" x="303.92" y="127.45" width="9.81" height="9.8"/><rect class="cls-3" x="303.92" y="147.06" width="9.81" height="9.8"/><rect class="cls-3" x="303.92" y="156.86" width="9.81" height="9.81"/><rect class="cls-3" x="303.92" y="137.25" width="9.81" height="9.81"/><rect class="cls-3" x="294.12" y="137.25" width="9.8" height="9.81"/><rect class="cls-3" x="294.12" y="166.67" width="9.8" height="9.8"/><rect class="cls-3" x="196.08" y="127.45" width="9.8" height="9.8"/><rect class="cls-3" x="205.88" y="137.25" width="9.81" height="9.81"/><rect class="cls-3" x="196.08" y="137.25" width="9.8" height="9.81"/><rect class="cls-3" x="196.08" y="147.06" width="9.8" height="9.8"/><rect class="cls-3" x="196.08" y="156.86" width="9.8" height="9.81"/><rect class="cls-3" x="205.88" y="166.67" width="9.81" height="9.8"/><rect class="cls-5" x="215.69" y="147.06" width="9.8" height="9.8"/><rect class="cls-5" x="284.31" y="147.06" width="9.81" height="9.8"/><rect class="cls-6" x="215.69" y="156.86" width="9.8" height="9.81"/><rect class="cls-6" x="284.31" y="156.86" width="9.81" height="9.81"/><rect class="cls-6" x="215.69" y="166.67" width="9.8" height="9.8"/><rect class="cls-6" x="284.31" y="166.67" width="9.81" height="9.8"/><rect class="cls-7" x="225.49" y="147.06" width="9.8" height="9.8"/><rect class="cls-7" x="274.51" y="147.06" width="9.8" height="9.8"/><rect class="cls-8" x="225.49" y="156.86" width="9.8" height="9.81"/><rect class="cls-9" x="274.51" y="166.67" width="9.8" height="9.8"/><rect class="cls-9" x="225.49" y="166.67" width="9.8" height="9.8"/><rect class="cls-8" x="274.51" y="156.86" width="9.8" height="9.81"/><rect class="cls-2" x="284.31" y="235.29" width="9.81" height="9.81"/><rect class="cls-2" x="284.31" y="245.1" width="9.81" height="9.8"/><rect class="cls-2" x="284.31" y="225.49" width="9.81" height="9.8"/><rect class="cls-2" x="274.51" y="235.29" width="9.8" height="9.81"/><rect class="cls-2" x="274.51" y="245.1" width="9.8" height="9.8"/><rect class="cls-2" x="274.51" y="225.49" width="9.8" height="9.8"/><rect class="cls-2" x="264.71" y="245.1" width="9.8" height="9.8"/><rect class="cls-2" x="225.49" y="235.29" width="9.8" height="9.81"/><rect class="cls-2" x="225.49" y="225.49" width="9.8" height="9.8"/><rect class="cls-2" x="225.49" y="245.1" width="9.8" height="9.8"/><rect class="cls-2" x="215.69" y="245.1" width="9.8" height="9.8"/><rect class="cls-2" x="215.69" y="225.49" width="9.8" height="9.8"/><rect class="cls-2" x="215.69" y="235.29" width="9.8" height="9.81"/><rect class="cls-2" x="235.29" y="245.1" width="9.81" height="9.8"/><rect class="cls-2" x="225.49" y="274.51" width="9.8" height="9.8"/><rect class="cls-2" x="254.9" y="274.51" width="9.81" height="9.8"/><rect class="cls-2" x="245.1" y="274.51" width="9.8" height="9.8"/><rect class="cls-2" x="235.29" y="274.51" width="9.81" height="9.8"/><rect class="cls-2" x="274.51" y="274.51" width="9.8" height="9.8"/><rect class="cls-2" x="264.71" y="274.51" width="9.8" height="9.8"/><rect class="cls-2" x="225.49" y="294.12" width="9.8" height="9.8"/><rect class="cls-2" x="254.9" y="303.92" width="9.81" height="9.81"/><rect class="cls-2" x="254.9" y="284.31" width="9.81" height="9.81"/><rect class="cls-2" x="245.1" y="284.31" width="9.8" height="9.81"/><rect class="cls-2" x="254.9" y="294.12" width="9.81" height="9.8"/><rect class="cls-2" x="245.1" y="303.92" width="9.8" height="9.81"/><rect class="cls-2" x="245.1" y="294.12" width="9.8" height="9.8"/><rect class="cls-2" x="235.29" y="284.31" width="9.81" height="9.81"/><rect class="cls-2" x="235.29" y="294.12" width="9.81" height="9.8"/><rect class="cls-2" x="235.29" y="303.92" width="9.81" height="9.81"/><rect class="cls-2" x="274.51" y="294.12" width="9.8" height="9.8"/><rect class="cls-2" x="264.71" y="303.92" width="9.8" height="9.81"/><rect class="cls-2" x="264.71" y="294.12" width="9.8" height="9.8"/><rect class="cls-2" x="264.71" y="284.31" width="9.8" height="9.81"/><rect class="cls-4" x="274.51" y="284.31" width="9.8" height="9.81"/><rect class="cls-4" x="225.49" y="284.31" width="9.8" height="9.81"/><rect class="cls-4" x="225.49" y="303.92" width="9.8" height="9.81"/><rect class="cls-4" x="274.51" y="303.92" width="9.8" height="9.81"/><rect class="cls-4" x="284.31" y="215.69" width="9.81" height="9.8"/><rect class="cls-4" x="254.9" y="225.49" width="9.81" height="9.8"/><rect class="cls-4" x="254.9" y="215.69" width="9.81" height="9.8"/><rect class="cls-4" x="245.1" y="225.49" width="9.8" height="9.8"/><rect class="cls-4" x="245.1" y="215.69" width="9.8" height="9.8"/><rect class="cls-4" x="235.29" y="235.29" width="9.81" height="9.81"/><rect class="cls-4" x="264.71" y="235.29" width="9.8" height="9.81"/><rect class="cls-4" x="254.9" y="245.1" width="9.81" height="9.8"/><rect class="cls-4" x="254.9" y="235.29" width="9.81" height="9.81"/><rect class="cls-4" x="245.1" y="235.29" width="9.8" height="9.81"/><rect class="cls-4" x="245.1" y="245.1" width="9.8" height="9.8"/><rect class="cls-4" x="254.9" y="254.9" width="9.81" height="9.81"/><rect class="cls-4" x="245.1" y="254.9" width="9.8" height="9.81"/><rect class="cls-4" x="235.29" y="254.9" width="9.81" height="9.81"/><rect class="cls-4" x="264.71" y="254.9" width="9.8" height="9.81"/><rect class="cls-4" x="225.49" y="264.71" width="9.8" height="9.8"/><rect class="cls-4" x="254.9" y="264.71" width="9.81" height="9.8"/><rect class="cls-4" x="245.1" y="264.71" width="9.8" height="9.8"/><rect class="cls-4" x="235.29" y="264.71" width="9.81" height="9.8"/><rect class="cls-4" x="274.51" y="264.71" width="9.8" height="9.8"/><rect class="cls-4" x="264.71" y="264.71" width="9.8" height="9.8"/><rect class="cls-4" x="215.69" y="294.12" width="9.8" height="9.8"/><rect class="cls-4" x="215.69" y="284.31" width="9.8" height="9.81"/><rect class="cls-4" x="215.69" y="264.71" width="9.8" height="9.8"/><rect class="cls-4" x="215.69" y="274.51" width="9.8" height="9.8"/><rect class="cls-4" x="215.69" y="303.92" width="9.8" height="9.81"/><rect class="cls-4" x="284.31" y="303.92" width="9.81" height="9.81"/><rect class="cls-4" x="284.31" y="274.51" width="9.81" height="9.8"/><rect class="cls-4" x="284.31" y="294.12" width="9.81" height="9.8"/><rect class="cls-4" x="284.31" y="284.31" width="9.81" height="9.81"/><rect class="cls-4" x="284.31" y="264.71" width="9.81" height="9.8"/><rect class="cls-10" x="313.73" y="303.92" width="9.8" height="9.81"/><rect class="cls-4" x="313.73" y="294.12" width="9.8" height="9.8"/><rect class="cls-4" x="294.12" y="225.49" width="9.8" height="9.8"/><rect class="cls-1" x="333.33" y="411.76" width="9.81" height="9.81"/><rect class="cls-1" x="333.33" y="401.96" width="9.81" height="9.8"/><rect class="cls-1" x="333.33" y="392.16" width="9.81" height="9.8"/><rect class="cls-1" x="333.33" y="313.73" width="9.81" height="9.8"/><rect class="cls-1" x="333.33" y="303.92" width="9.81" height="9.81"/><rect class="cls-1" x="333.33" y="294.12" width="9.81" height="9.8"/><rect class="cls-1" x="333.33" y="284.31" width="9.81" height="9.81"/><rect class="cls-1" x="333.33" y="274.51" width="9.81" height="9.8"/><rect class="cls-10" x="333.33" y="264.71" width="9.81" height="9.8"/><rect class="cls-1" x="323.53" y="411.76" width="9.8" height="9.81"/><rect class="cls-4" x="323.53" y="401.96" width="9.8" height="9.8"/><rect class="cls-2" x="323.53" y="392.16" width="9.8" height="9.8"/><rect class="cls-1" x="323.53" y="382.35" width="9.8" height="9.81"/><rect class="cls-4" x="323.53" y="323.53" width="9.8" height="9.8"/><rect class="cls-4" x="323.53" y="313.73" width="9.8" height="9.8"/><rect class="cls-4" x="323.53" y="303.92" width="9.8" height="9.81"/><rect class="cls-4" x="323.53" y="294.12" width="9.8" height="9.8"/><rect class="cls-2" x="323.53" y="284.31" width="9.8" height="9.81"/><rect class="cls-2" x="323.53" y="274.51" width="9.8" height="9.8"/><rect class="cls-2" x="323.53" y="264.71" width="9.8" height="9.8"/><rect class="cls-1" x="323.53" y="254.9" width="9.8" height="9.81"/><rect class="cls-1" x="323.53" y="245.1" width="9.8" height="9.8"/><rect class="cls-10" x="323.53" y="235.29" width="9.8" height="9.81"/><rect class="cls-10" x="323.53" y="147.06" width="9.8" height="9.8"/><rect class="cls-1" x="323.53" y="137.25" width="9.8" height="9.81"/><rect class="cls-1" x="313.73" y="411.76" width="9.8" height="9.81"/><rect class="cls-4" x="313.73" y="401.96" width="9.8" height="9.8"/><rect class="cls-2" x="313.73" y="392.16" width="9.8" height="9.8"/><rect class="cls-1" x="313.73" y="382.35" width="9.8" height="9.81"/><rect class="cls-4" x="313.73" y="323.53" width="9.8" height="9.8"/><rect class="cls-1" x="313.73" y="313.73" width="9.8" height="9.8"/><rect class="cls-4" x="313.73" y="284.31" width="9.8" height="9.81"/><rect class="cls-4" x="313.73" y="274.51" width="9.8" height="9.8"/><rect class="cls-4" x="313.73" y="264.71" width="9.8" height="9.8"/><rect class="cls-4" x="313.73" y="254.9" width="9.8" height="9.81"/><rect class="cls-4" x="313.73" y="245.1" width="9.8" height="9.8"/><rect class="cls-3" x="313.73" y="235.29" width="9.8" height="9.81"/><rect class="cls-10" x="313.73" y="225.49" width="9.8" height="9.8"/><rect class="cls-1" x="313.73" y="215.69" width="9.8" height="9.8"/><rect class="cls-1" x="313.73" y="156.86" width="9.8" height="9.81"/><rect class="cls-10" x="313.73" y="127.45" width="9.8" height="9.8"/><rect class="cls-10" x="313.73" y="117.65" width="9.8" height="9.8"/><rect class="cls-1" x="313.73" y="107.84" width="9.8" height="9.81"/><rect class="cls-1" x="313.73" y="98.04" width="9.8" height="9.8"/><rect class="cls-1" x="303.92" y="411.76" width="9.81" height="9.81"/><rect class="cls-4" x="303.92" y="401.96" width="9.81" height="9.8"/><rect class="cls-2" x="303.92" y="392.16" width="9.81" height="9.8"/><rect class="cls-1" x="303.92" y="382.35" width="9.81" height="9.81"/><rect class="cls-1" x="303.92" y="372.55" width="9.81" height="9.8"/><rect class="cls-1" x="303.92" y="362.75" width="9.81" height="9.8"/><rect class="cls-1" x="303.92" y="352.94" width="9.81" height="9.81"/><rect class="cls-1" x="303.92" y="343.14" width="9.81" height="9.8"/><rect class="cls-10" x="303.92" y="333.33" width="9.81" height="9.81"/><rect class="cls-10" x="303.92" y="323.53" width="9.81" height="9.8"/><rect class="cls-10" x="303.92" y="313.73" width="9.81" height="9.8"/><rect class="cls-4" x="303.92" y="303.92" width="9.81" height="9.81"/><rect class="cls-4" x="303.92" y="294.12" width="9.81" height="9.8"/><rect class="cls-4" x="303.92" y="284.31" width="9.81" height="9.81"/><rect class="cls-1" x="303.92" y="274.51" width="9.81" height="9.8"/><rect class="cls-1" x="303.92" y="264.71" width="9.81" height="9.8"/><rect class="cls-3" x="303.92" y="254.9" width="9.81" height="9.81"/><rect class="cls-3" x="303.92" y="245.1" width="9.81" height="9.8"/><rect class="cls-4" x="303.92" y="235.29" width="9.81" height="9.81"/><rect class="cls-4" x="303.92" y="225.49" width="9.81" height="9.8"/><rect class="cls-4" x="303.92" y="215.69" width="9.81" height="9.8"/><rect class="cls-1" x="303.92" y="205.88" width="9.81" height="9.81"/><rect class="cls-10" x="303.92" y="166.67" width="9.81" height="9.8"/><rect class="cls-1" x="303.92" y="88.24" width="9.81" height="9.8"/><rect class="cls-1" x="303.92" y="78.43" width="9.81" height="9.81"/><rect class="cls-1" x="294.12" y="411.76" width="9.8" height="9.81"/><rect class="cls-4" x="294.12" y="401.96" width="9.8" height="9.8"/><rect class="cls-4" x="294.12" y="392.16" width="9.8" height="9.8"/><rect class="cls-3" x="294.12" y="382.35" width="9.8" height="9.81"/><rect class="cls-2" x="294.12" y="372.55" width="9.8" height="9.8"/><rect class="cls-2" x="294.12" y="362.75" width="9.8" height="9.8"/><rect class="cls-2" x="294.12" y="352.94" width="9.8" height="9.81"/><rect class="cls-3" x="294.12" y="343.14" width="9.8" height="9.8"/><rect class="cls-1" x="294.12" y="333.33" width="9.8" height="9.81"/><rect class="cls-1" x="294.12" y="323.53" width="9.8" height="9.8"/><rect class="cls-1" x="294.12" y="313.73" width="9.8" height="9.8"/><rect class="cls-1" x="294.12" y="303.92" width="9.8" height="9.81"/><rect class="cls-1" x="294.12" y="294.12" width="9.8" height="9.8"/><rect class="cls-1" x="294.12" y="284.31" width="9.8" height="9.81"/><rect class="cls-10" x="294.12" y="274.51" width="9.8" height="9.8"/><rect class="cls-10" x="294.12" y="264.71" width="9.8" height="9.8"/><rect class="cls-1" x="294.12" y="254.9" width="9.8" height="9.81"/><rect class="cls-10" x="294.12" y="245.1" width="9.8" height="9.8"/><rect class="cls-3" x="294.12" y="235.29" width="9.8" height="9.81"/><rect class="cls-4" x="294.12" y="215.69" width="9.8" height="9.8"/><rect class="cls-4" x="294.12" y="205.88" width="9.8" height="9.81"/><rect class="cls-1" x="294.12" y="196.08" width="9.8" height="9.8"/><rect class="cls-10" x="294.12" y="176.47" width="9.8" height="9.8"/><rect class="cls-10" x="294.12" y="156.86" width="9.8" height="9.81"/><rect class="cls-10" x="294.12" y="147.06" width="9.8" height="9.8"/><rect class="cls-10" x="294.12" y="68.63" width="9.8" height="9.8"/><rect class="cls-1" x="284.31" y="411.76" width="9.81" height="9.81"/><rect class="cls-4" x="284.31" y="401.96" width="9.81" height="9.8"/><rect class="cls-4" x="284.31" y="392.16" width="9.81" height="9.8"/><rect class="cls-4" x="284.31" y="382.35" width="9.81" height="9.81"/><rect class="cls-4" x="284.31" y="372.55" width="9.81" height="9.8"/><rect class="cls-2" x="284.31" y="362.75" width="9.81" height="9.8"/><rect class="cls-4" x="284.31" y="352.94" width="9.81" height="9.81"/><rect class="cls-4" x="284.31" y="343.14" width="9.81" height="9.8"/><rect class="cls-4" x="284.31" y="333.33" width="9.81" height="9.81"/><rect class="cls-3" x="284.31" y="323.53" width="9.81" height="9.8"/><rect class="cls-4" x="284.31" y="313.73" width="9.81" height="9.8"/><rect class="cls-3" x="284.31" y="254.9" width="9.81" height="9.81"/><rect class="cls-4" x="284.31" y="205.88" width="9.81" height="9.81"/><rect class="cls-4" x="284.31" y="196.08" width="9.81" height="9.8"/><rect class="cls-10" x="284.31" y="186.27" width="9.81" height="9.81"/><rect class="cls-10" x="284.31" y="137.25" width="9.81" height="9.81"/><rect class="cls-1" x="284.31" y="68.63" width="9.81" height="9.8"/><rect class="cls-1" x="274.51" y="411.76" width="9.8" height="9.81"/><rect class="cls-4" x="274.51" y="401.96" width="9.8" height="9.8"/><rect class="cls-4" x="274.51" y="392.16" width="9.8" height="9.8"/><rect class="cls-4" x="274.51" y="382.35" width="9.8" height="9.81"/><rect class="cls-3" x="274.51" y="372.55" width="9.8" height="9.8"/><rect class="cls-3" x="274.51" y="362.75" width="9.8" height="9.8"/><rect class="cls-3" x="274.51" y="352.94" width="9.8" height="9.81"/><rect class="cls-4" x="274.51" y="343.14" width="9.8" height="9.8"/><rect class="cls-4" x="274.51" y="333.33" width="9.8" height="9.81"/><rect class="cls-3" x="274.51" y="323.53" width="9.8" height="9.8"/><rect class="cls-4" x="274.51" y="313.73" width="9.8" height="9.8"/><rect class="cls-3" x="274.51" y="254.9" width="9.8" height="9.81"/><rect class="cls-3" x="274.51" y="215.69" width="9.8" height="9.8"/><rect class="cls-4" x="274.51" y="205.88" width="9.8" height="9.81"/><rect class="cls-10" x="274.51" y="196.08" width="9.8" height="9.8"/><rect class="cls-10" x="274.51" y="137.25" width="9.8" height="9.81"/><rect class="cls-10" x="274.51" y="58.82" width="9.8" height="9.81"/><rect class="cls-1" x="264.71" y="411.76" width="9.8" height="9.81"/><rect class="cls-1" x="264.71" y="401.96" width="9.8" height="9.8"/><rect class="cls-1" x="264.71" y="392.16" width="9.8" height="9.8"/><rect class="cls-1" x="264.71" y="382.35" width="9.8" height="9.81"/><rect class="cls-1" x="264.71" y="372.55" width="9.8" height="9.8"/><rect class="cls-1" x="264.71" y="362.75" width="9.8" height="9.8"/><rect class="cls-1" x="264.71" y="352.94" width="9.8" height="9.81"/><rect class="cls-1" x="264.71" y="343.14" width="9.8" height="9.8"/><rect class="cls-1" x="264.71" y="333.33" width="9.8" height="9.81"/><rect class="cls-3" x="264.71" y="323.53" width="9.8" height="9.8"/><rect class="cls-4" x="264.71" y="313.73" width="9.8" height="9.8"/><rect class="cls-3" x="264.71" y="225.49" width="9.8" height="9.8"/><rect class="cls-3" x="264.71" y="215.69" width="9.8" height="9.8"/><rect class="cls-4" x="264.71" y="205.88" width="9.8" height="9.81"/><rect class="cls-1" x="264.71" y="196.08" width="9.8" height="9.8"/><rect class="cls-1" x="264.71" y="58.82" width="9.8" height="9.81"/><rect class="cls-1" x="254.9" y="333.33" width="9.81" height="9.81"/><rect class="cls-4" x="254.9" y="323.53" width="9.81" height="9.8"/><rect class="cls-4" x="254.9" y="313.73" width="9.81" height="9.8"/><rect class="cls-4" x="254.9" y="205.88" width="9.81" height="9.81"/><rect class="cls-1" x="254.9" y="196.08" width="9.81" height="9.8"/><rect class="cls-1" x="254.9" y="58.82" width="9.81" height="9.81"/><rect class="cls-1" x="245.1" y="333.33" width="9.8" height="9.81"/><rect class="cls-4" x="245.1" y="323.53" width="9.8" height="9.8"/><rect class="cls-4" x="245.1" y="313.73" width="9.8" height="9.8"/><rect class="cls-4" x="245.1" y="205.88" width="9.8" height="9.81"/><rect class="cls-1" x="245.1" y="196.08" width="9.8" height="9.8"/><rect class="cls-1" x="245.1" y="58.82" width="9.8" height="9.81"/><rect class="cls-1" x="235.29" y="411.76" width="9.81" height="9.81"/><rect class="cls-1" x="235.29" y="401.96" width="9.81" height="9.8"/><rect class="cls-1" x="235.29" y="392.16" width="9.81" height="9.8"/><rect class="cls-1" x="235.29" y="382.35" width="9.81" height="9.81"/><rect class="cls-1" x="235.29" y="372.55" width="9.81" height="9.8"/><rect class="cls-1" x="235.29" y="362.75" width="9.81" height="9.8"/><rect class="cls-1" x="235.29" y="352.94" width="9.81" height="9.81"/><rect class="cls-1" x="235.29" y="343.14" width="9.81" height="9.8"/><rect class="cls-1" x="235.29" y="333.33" width="9.81" height="9.81"/><rect class="cls-3" x="235.29" y="323.53" width="9.81" height="9.8"/><rect class="cls-4" x="235.29" y="313.73" width="9.81" height="9.8"/><rect class="cls-3" x="235.29" y="225.49" width="9.81" height="9.8"/><rect class="cls-3" x="235.29" y="215.69" width="9.81" height="9.8"/><rect class="cls-4" x="235.29" y="205.88" width="9.81" height="9.81"/><rect class="cls-1" x="235.29" y="196.08" width="9.81" height="9.8"/><rect class="cls-1" x="235.29" y="58.82" width="9.81" height="9.81"/><rect class="cls-1" x="225.49" y="411.76" width="9.8" height="9.81"/><rect class="cls-4" x="225.49" y="401.96" width="9.8" height="9.8"/><rect class="cls-4" x="225.49" y="392.16" width="9.8" height="9.8"/><rect class="cls-4" x="225.49" y="382.35" width="9.8" height="9.81"/><rect class="cls-3" x="225.49" y="372.55" width="9.8" height="9.8"/><rect class="cls-3" x="225.49" y="362.75" width="9.8" height="9.8"/><rect class="cls-3" x="225.49" y="352.94" width="9.8" height="9.81"/><rect class="cls-4" x="225.49" y="343.14" width="9.8" height="9.8"/><rect class="cls-4" x="225.49" y="333.33" width="9.8" height="9.81"/><rect class="cls-3" x="225.49" y="323.53" width="9.8" height="9.8"/><rect class="cls-4" x="225.49" y="313.73" width="9.8" height="9.8"/><rect class="cls-3" x="225.49" y="254.9" width="9.8" height="9.81"/><rect class="cls-3" x="225.49" y="215.69" width="9.8" height="9.8"/><rect class="cls-4" x="225.49" y="205.88" width="9.8" height="9.81"/><rect class="cls-10" x="225.49" y="196.08" width="9.8" height="9.8"/><rect class="cls-10" x="225.49" y="137.25" width="9.8" height="9.81"/><rect class="cls-10" x="225.49" y="58.82" width="9.8" height="9.81"/><rect class="cls-1" x="215.69" y="411.76" width="9.8" height="9.81"/><rect class="cls-4" x="215.69" y="401.96" width="9.8" height="9.8"/><rect class="cls-4" x="215.69" y="392.16" width="9.8" height="9.8"/><rect class="cls-4" x="215.69" y="382.35" width="9.8" height="9.81"/><rect class="cls-4" x="215.69" y="372.55" width="9.8" height="9.8"/><rect class="cls-4" x="215.69" y="362.75" width="9.8" height="9.8"/><rect class="cls-4" x="215.69" y="352.94" width="9.8" height="9.81"/><rect class="cls-4" x="215.69" y="343.14" width="9.8" height="9.8"/><rect class="cls-4" x="215.69" y="333.33" width="9.8" height="9.81"/><rect class="cls-4" x="215.69" y="323.53" width="9.8" height="9.8"/><rect class="cls-4" x="215.69" y="313.73" width="9.8" height="9.8"/><rect class="cls-3" x="215.69" y="254.9" width="9.8" height="9.81"/><rect class="cls-4" x="215.69" y="215.69" width="9.8" height="9.8"/><rect class="cls-4" x="215.69" y="205.88" width="9.8" height="9.81"/><rect class="cls-4" x="215.69" y="196.08" width="9.8" height="9.8"/><rect class="cls-10" x="215.69" y="186.27" width="9.8" height="9.81"/><rect class="cls-10" x="215.69" y="137.25" width="9.8" height="9.81"/><rect class="cls-1" x="215.69" y="68.63" width="9.8" height="9.8"/><rect class="cls-1" x="205.88" y="411.76" width="9.81" height="9.81"/><rect class="cls-4" x="205.88" y="401.96" width="9.81" height="9.8"/><rect class="cls-4" x="205.88" y="392.16" width="9.81" height="9.8"/><rect class="cls-3" x="205.88" y="382.35" width="9.81" height="9.81"/><rect class="cls-2" x="205.88" y="372.55" width="9.81" height="9.8"/><rect class="cls-2" x="205.88" y="362.75" width="9.81" height="9.8"/><rect class="cls-2" x="205.88" y="352.94" width="9.81" height="9.81"/><rect class="cls-3" x="205.88" y="343.14" width="9.81" height="9.8"/><rect class="cls-1" x="205.88" y="333.33" width="9.81" height="9.81"/><rect class="cls-1" x="205.88" y="323.53" width="9.81" height="9.8"/><rect class="cls-1" x="205.88" y="313.73" width="9.81" height="9.8"/><rect class="cls-1" x="205.88" y="303.92" width="9.81" height="9.81"/><rect class="cls-1" x="205.88" y="294.12" width="9.81" height="9.8"/><rect class="cls-1" x="205.88" y="284.31" width="9.81" height="9.81"/><rect class="cls-10" x="205.88" y="274.51" width="9.81" height="9.8"/><rect class="cls-10" x="205.88" y="264.71" width="9.81" height="9.8"/><rect class="cls-1" x="205.88" y="254.9" width="9.81" height="9.81"/><rect class="cls-10" x="205.88" y="245.1" width="9.81" height="9.8"/><rect class="cls-3" x="205.88" y="235.29" width="9.81" height="9.81"/><rect class="cls-4" x="205.88" y="225.49" width="9.81" height="9.8"/><rect class="cls-4" x="205.88" y="215.69" width="9.81" height="9.8"/><rect class="cls-4" x="205.88" y="205.88" width="9.81" height="9.81"/><rect class="cls-1" x="205.88" y="196.08" width="9.81" height="9.8"/><rect class="cls-10" x="205.88" y="176.47" width="9.81" height="9.8"/><rect class="cls-10" x="205.88" y="156.86" width="9.81" height="9.81"/><rect class="cls-10" x="205.88" y="147.06" width="9.81" height="9.8"/><rect class="cls-10" x="205.88" y="68.63" width="9.81" height="9.8"/><rect class="cls-1" x="196.08" y="411.76" width="9.8" height="9.81"/><rect class="cls-4" x="196.08" y="401.96" width="9.8" height="9.8"/><rect class="cls-2" x="196.08" y="392.16" width="9.8" height="9.8"/><rect class="cls-1" x="196.08" y="382.35" width="9.8" height="9.81"/><rect class="cls-1" x="196.08" y="372.55" width="9.8" height="9.8"/><rect class="cls-1" x="196.08" y="362.75" width="9.8" height="9.8"/><rect class="cls-1" x="196.08" y="352.94" width="9.8" height="9.81"/><rect class="cls-10" x="196.08" y="343.14" width="9.8" height="9.8"/><rect class="cls-10" x="196.08" y="333.33" width="9.8" height="9.81"/><rect class="cls-10" x="196.08" y="323.53" width="9.8" height="9.8"/><rect class="cls-10" x="196.08" y="313.73" width="9.8" height="9.8"/><rect class="cls-4" x="196.08" y="303.92" width="9.8" height="9.81"/><rect class="cls-4" x="196.08" y="294.12" width="9.8" height="9.8"/><rect class="cls-4" x="196.08" y="284.31" width="9.8" height="9.81"/><rect class="cls-1" x="196.08" y="274.51" width="9.8" height="9.8"/><rect class="cls-1" x="196.08" y="264.71" width="9.8" height="9.8"/><rect class="cls-4" x="196.08" y="254.9" width="9.8" height="9.81"/><rect class="cls-4" x="196.08" y="245.1" width="9.8" height="9.8"/><rect class="cls-4" x="196.08" y="235.29" width="9.8" height="9.81"/><rect class="cls-4" x="196.08" y="225.49" width="9.8" height="9.8"/><rect class="cls-4" x="196.08" y="215.69" width="9.8" height="9.8"/><rect class="cls-1" x="196.08" y="205.88" width="9.8" height="9.81"/><rect class="cls-10" x="196.08" y="166.67" width="9.8" height="9.8"/><rect class="cls-1" x="196.08" y="88.24" width="9.8" height="9.8"/><rect class="cls-1" x="196.08" y="78.43" width="9.8" height="9.81"/><rect class="cls-1" x="186.27" y="411.76" width="9.81" height="9.81"/><rect class="cls-4" x="186.27" y="401.96" width="9.81" height="9.8"/><rect class="cls-2" x="186.27" y="392.16" width="9.81" height="9.8"/><rect class="cls-1" x="186.27" y="382.35" width="9.81" height="9.81"/><rect class="cls-1" x="186.27" y="333.33" width="9.81" height="9.81"/><rect class="cls-4" x="186.27" y="323.53" width="9.81" height="9.8"/><rect class="cls-1" x="186.27" y="313.73" width="9.81" height="9.8"/><rect class="cls-10" x="186.27" y="303.92" width="9.81" height="9.81"/><rect class="cls-4" x="186.27" y="294.12" width="9.81" height="9.8"/><rect class="cls-4" x="186.27" y="284.31" width="9.81" height="9.81"/><rect class="cls-4" x="186.27" y="274.51" width="9.81" height="9.8"/><rect class="cls-4" x="186.27" y="264.71" width="9.81" height="9.8"/><rect class="cls-4" x="186.27" y="254.9" width="9.81" height="9.81"/><rect class="cls-4" x="186.27" y="245.1" width="9.81" height="9.8"/><rect class="cls-3" x="186.27" y="235.29" width="9.81" height="9.81"/><rect class="cls-10" x="186.27" y="225.49" width="9.81" height="9.8"/><rect class="cls-1" x="186.27" y="215.69" width="9.81" height="9.8"/><rect class="cls-1" x="186.27" y="156.86" width="9.81" height="9.81"/><rect class="cls-10" x="186.27" y="127.45" width="9.81" height="9.8"/><rect class="cls-10" x="186.27" y="117.65" width="9.81" height="9.8"/><rect class="cls-1" x="186.27" y="107.84" width="9.81" height="9.81"/><rect class="cls-1" x="186.27" y="98.04" width="9.81" height="9.8"/><rect class="cls-1" x="176.47" y="411.76" width="9.8" height="9.81"/><rect class="cls-4" x="176.47" y="401.96" width="9.8" height="9.8"/><rect class="cls-2" x="176.47" y="392.16" width="9.8" height="9.8"/><rect class="cls-1" x="176.47" y="382.35" width="9.8" height="9.81"/><rect class="cls-1" x="176.47" y="323.53" width="9.8" height="9.8"/><rect class="cls-4" x="176.47" y="313.73" width="9.8" height="9.8"/><rect class="cls-4" x="176.47" y="303.92" width="9.8" height="9.81"/><rect class="cls-4" x="176.47" y="294.12" width="9.8" height="9.8"/><rect class="cls-2" x="176.47" y="284.31" width="9.8" height="9.81"/><rect class="cls-2" x="176.47" y="274.51" width="9.8" height="9.8"/><rect class="cls-2" x="176.47" y="264.71" width="9.8" height="9.8"/><rect class="cls-1" x="176.47" y="254.9" width="9.8" height="9.81"/><rect class="cls-1" x="176.47" y="245.1" width="9.8" height="9.8"/><rect class="cls-10" x="176.47" y="235.29" width="9.8" height="9.81"/><rect class="cls-10" x="176.47" y="147.06" width="9.8" height="9.8"/><rect class="cls-1" x="176.47" y="137.25" width="9.8" height="9.81"/><rect class="cls-1" x="166.67" y="411.76" width="9.8" height="9.81"/><rect class="cls-1" x="166.67" y="401.96" width="9.8" height="9.8"/><rect class="cls-1" x="166.67" y="392.16" width="9.8" height="9.8"/><rect class="cls-10" x="166.67" y="313.73" width="9.8" height="9.8"/><rect class="cls-1" x="166.67" y="303.92" width="9.8" height="9.81"/><rect class="cls-1" x="166.67" y="294.12" width="9.8" height="9.8"/><rect class="cls-1" x="166.67" y="284.31" width="9.8" height="9.81"/><rect class="cls-10" x="166.67" y="274.51" width="9.8" height="9.8"/><rect class="cls-10" x="166.67" y="264.71" width="9.8" height="9.8"/></g></svg>